<?xml version="1.0" encoding="utf-8"?>
<!-- Generator: Adobe Illustrator 19.0.0, SVG Export Plug-In . SVG Version: 6.00 Build 0)  -->
<!DOCTYPE svg PUBLIC "-//W3C//DTD SVG 1.1//EN" "http://www.w3.org/Graphics/SVG/1.1/DTD/svg11.dtd">
<svg version="1.1" xmlns="http://www.w3.org/2000/svg" xmlns:xlink="http://www.w3.org/1999/xlink" x="0px" y="0px"
	 viewBox="0 0 1046.9 430.5" enable-background="new 0 0 1046.9 430.5" xml:space="preserve">
<g id="Layer_3" display="none" opacity="0.31">
	
		<image display="inline" overflow="visible" width="1005" height="375" xlink:href="logo-temp.png"  transform="matrix(1 0 0 1 15.3837 34.8985)">
	</image>
</g>
<g id="base-lineart" display="none">
	<path display="inline" fill="#E9000D" d="M611.8,119.1c0,0-9.7-4.6-22.7-3.5c-11.8,1-47.8,59.5,38.6,89.1c0,0-33.8-22.1-35.8-43.5
		C588.2,122.1,611.8,119.1,611.8,119.1z"/>
	<path display="inline" fill="none" stroke="#E9000D" stroke-width="9" stroke-linecap="round" d="M991,238.9c0,0-39,48-52,48
		s22-103,10-103s-54.1,71.4-68.1,77.4c-14,6,13.1-72.4,6.1-79.4s-64,81-73,82s13-89,13-89s-55,81-81,89c-26,8,2-79,2-79
		c-18,79.5-52.3,84.3-60.4,74.5c-40.6-49.5,52.5-79.9,52.5-79.9c-28.5-21-61.5,36-61.5,36s-49.5,64.5-70.5,63
		c-21-1.5,19.5-73.5,19.5-73.5c-51-13.5-37.5-81-22.5-82.5s36,34.5-36,104.4s-79.5,117.6-72,134.1s24,13.5,37.5,0s0-162,0-162
		s-13-25.1-35.8-17.1s-34.8,26-33.8,45s5,31,19,37s29.7-9.7,48.7-34.7"/>
	<path display="inline" fill="#E9000D" d="M530.2,186.9c0,0,0.4,6-10.7,1.3c-12.1-5-33.2,3.6-39.5,31.3c-5.1,22.7,0.7,38.5,10.4,42
		c10.8,3.8,9.9,5.5,9.9,5.5s-20,11.6-38.7-10.4c-7.5-8.9-8-32.8-1.7-53.6c10.3-33.5,34.4-34,52.4-28
		C524.8,179.2,530.2,186.9,530.2,186.9z"/>
	<path display="inline" fill="#E9000D" d="M546.9,183.9c4.2,2.6,1.7,28.9,2.9,76.4c0.9,37,5.7,124-36.3,116.5
		c-17.9-3.2-14.1-8-0.5-10.5c31.8-5.9,9.6-181.4,13.4-185.9C530.2,175.9,542.1,181,546.9,183.9z"/>
	<path display="inline" fill="#E9000D" d="M610,197.8c0,0-30,69.1-6,84.1c0,0,10.2-75.8,23.6-76.9C641,203.9,610,197.8,610,197.8z"
		/>
	<path display="inline" fill="#E9000D" d="M748,184.9c0,0-5-22.7-32-12.3s-45,50.3-46,65.8s13,30.2,26,29.2
		c15.9-1.2,21-11.3,1.6-9.3C682.9,259.9,687.2,192.3,748,184.9z"/>
	<path display="inline" fill="#E9000D" d="M748,170.3c2.3-2.3,17.3,2.9,18,6.3s-20.3,77.2-11.3,82.7c0,0-22.7,14.5-23.3-1.5
		S745.7,172.6,748,170.3z"/>
	<path display="inline" fill="#E9000D" d="M824,172.5c6-2.7,17.5,3.4,17.5,6.9s-18.8,66.9-13.8,71.4S814,263.9,814,263.9
		S818,175.2,824,172.5z"/>
	<path display="inline" fill="#E9000D" d="M886,177.4c1.5-2.1,18.4,5.8,19,7.6c2,6.2-15.4,55.9-11.8,60.2l-12.3,16l-2.1-18.8
		C878.8,242.4,884.5,179.5,886,177.4z"/>
	<path display="inline" fill="#E9000D" d="M951,179.9c0,0,16.6,3.3,17,6.3c2.5,20.7-25.4,94.3-16.8,94.3c0,0-14,6.6-14.6,4.1
		C936,282.2,951,179.9,951,179.9z"/>
	<path display="inline" fill="#E9000D" d="M840.5,181.4"/>
</g>
<g id="text" display="none">
	<rect x="29.9" y="76.9" display="inline" fill="none" width="710.7" height="276"/>
	<text transform="matrix(1 0 0 1 29.9167 260.6391)" display="inline"><tspan x="0" y="0" font-family="'Signika-Regular'" font-size="250px" letter-spacing="1">C</tspan><tspan x="152.2" y="0" font-family="'Signika-Regular'" font-size="250px">SS</tspan></text>
</g>
<g id="expanded-logo--all">
	<g>
		<linearGradient id="SVGID_1_" gradientUnits="userSpaceOnUse" x1="747.0778" y1="372.0088" x2="747.0778" y2="110.1039">
			<stop  offset="0" style="stop-color:#621559"/>
			<stop  offset="1" style="stop-color:#9F2171"/>
		</linearGradient>
		<path fill="url(#SVGID_1_)" d="M1015.4,230.1c-1.9-1.6-4.8-1.3-6.3,0.7c-0.1,0.1-9.8,12-20.9,23.7c-7.4,7.8-13,12.9-17.1,16.3
			c0.7-16.3,20.6-72.3,18.4-89.8c-0.3-2.6-12.8-5.5-16.2-6.2c-0.9-0.4-1.8-0.7-2.8-0.7c-7.8,0-18,12.6-39.3,41.4
			c-5.4,7.4-11.5,15.6-17,22.4c-0.3-10.5,14.1-52.5,12.3-58.2c-0.5-1.5-13.5-7.8-17.8-7.9c-0.5-0.1-1.1-0.2-1.7-0.1
			c-6.6,0.4-16,11.5-42.8,46.6c-4.9,6.4-10.6,13.9-15.7,20.3c1.5-17.5,14.4-61.6,14.4-64.5c0-3.5-11.5-9.6-17.5-6.9
			c-0.1,0-0.1,0.1-0.2,0.1l-0.6-0.2c-13.3,19.5-48.5,67.5-70.5,82.9c-2.7-16.7,13.8-75.6,13.2-78.7c-0.7-3.4-15.7-8.6-18-6.3
			c-0.4,0.4-1.3,3.2-2.5,7.6l-1.7-1.3c-3.6-4.5-10.2-8.5-21.6-5.9c-0.5,0.1-0.9,0.2-1.4,0.3c-23.5,4.9-43.8,38.4-46,42
			c-1.5,2-13.2,16.9-26.9,31.5c-25.8,27.4-36.2,29.8-39.5,29.5c-1-0.1-1.1-0.4-1.3-0.6c-3.9-7.2,9.6-39.9,24.4-66.2l2.9-5.1
			l-5.6-1.5c-3.5-0.9-10.1-3.2-16.5-8.1c-1.5-1.3-2.9-2.7-4.4-4.2c4.6-7,8.3-13.8,11-20.4c6.3-15.1,7.3-28.8,2.8-38.6
			c-2.3-4.9-5.9-8.5-10-10.2c0.1,0,0.2,0,0.2,0s-9.7-4.6-22.7-3.5c-10,0.8-37.4,42.9,7,73.8c-7.2,10-17,21.4-30.3,34.3
			c-5.9,5.8-11.4,11.3-16.5,16.8c-0.3-34.9,1-54.3-2.6-56.5c-4.7-2.9-16.6-8-20.4-3.5c-0.2,0.2-0.3,0.9-0.4,1.9
			c-1-0.7-2.1-1.4-3.2-2.1c-2.7-1.8-6.2-3.7-10.5-5.2c-18-6-42.1-5.5-52.4,28c-6.4,20.8-5.8,44.7,1.7,53.6
			c12.3,14.5,25.2,14.4,32.5,12.7c10.9-2.1,22.2-12.6,34.8-28.1c0.4,7.1,0.7,14.4,0.9,21.8c-40.5,50.9-43.4,85.6-36.9,99.8
			c4.4,9.6,11.1,12.7,15.9,13.6c1.2,0.2,2.4,0.3,3.7,0.3c0.1,0,0.1,0,0.2,0c0.3,0,0.5,0.1,0.8,0.1c42,7.5,37.2-79.6,36.3-116.5
			c-0.1-2.3-0.1-4.5-0.1-6.7c6.9-7.8,14.4-15.6,22.6-23.5c12.1-11.8,22.2-23.2,30.2-34.1c1.9,1.8,3.9,3.6,6.2,5.2
			c-5,12.5-21.4,56.7-10,75.2c0.2,0.4,0.4,0.8,0.6,1.2c1.7,3.2,4.8,5.1,8.6,5.4c3.8,0.3,15.3,1.1,46.7-32.3
			c6.2-6.6,11.9-13.2,16.6-18.7c-0.6,2.4-1,4.6-1.1,6.5c-1,15.5,13,30.2,26,29.2c0.1,0,0.1,0,0.2,0c1.9,0.1,4-0.1,6-0.6
			c6-1.4,17.2-6.4,28.4-23.8c-0.5,7.1,0,12.1,0.8,15.5c0.2,2.4,1,4,2.1,5.1c0.5,0.8,1.1,1.5,1.6,2.1c2.1,2.1,5.9,4.3,12.1,2.4
			c11.7-3.6,29.3-20.1,52.4-49c6.6-8.2,12.7-16.3,17.7-23.2c-1.3,6.1-2.8,12.9-4.2,19.8c-9,44.8-5.7,48.5-3.8,50.7
			c1.3,1.4,3.1,2.1,4.9,1.9c5.2-0.6,12.2-8.9,35.4-39.3c10.8-14.2,26.5-34.7,33.8-41.2c-0.2,6.9-3.3,21.4-5.5,31.7
			c-6.2,29.3-8.1,40.7-2.8,45.1c0.9,0.8,3.5,2.4,7.2,0.8c7.2-3.1,17.8-16.9,34.3-39.2c9-12.2,23.5-31.8,30.1-36.7
			c0.2,7.7-4.4,28.9-7.5,43.4c-7.5,34.5-10.4,50.3-5.7,56c1.3,1.6,3.1,2.5,5.2,2.5c4.3,0,12.6-2.6,34.1-25.4
			c11.4-12,21.3-24.1,21.4-24.3C1017.6,234.5,1017.3,231.6,1015.4,230.1z M509.6,255.1c-8.3-5-12.8-20.1-8.1-40.9
			c6-26.5,25.5-35.6,37.8-31.9c3.5,2,6.4,4.7,8.5,7.2c0.4,8.3,1.2,19.8,1.9,32.7C535.6,240.8,521.1,257.2,509.6,255.1z M534.5,361.1
			c-1.4,0.3-2.7,0.5-3.8,0.8c-3.3-1.1-6-3.8-8-8.1c-4.8-10.5,0.1-29.3,6.2-43.3c5.3-12.1,13-25,22.9-38.4
			C552.7,315.7,549.9,358.2,534.5,361.1z M623.5,175.5c-4.3-7.3-6.9-17.2-5.9-30.5c1.2-14.6,6.8-23.1,9.4-23.4c0.1,0,0.3,0,0.4,0
			c2.2,0,5.4,1.6,7.5,6.2C636.7,131.4,641.6,146.7,623.5,175.5z M758.1,203.8c-4.3,12.7-9.4,23.2-15.1,31.5
			c-8.9,12.8-16.9,16.5-21.1,17.5c-0.9,0-1.8,0.1-2.8,0.2c-14.2,1.5-10.6-62.3,45.5-72.7C763.4,184.3,760.7,193.2,758.1,203.8z"/>
		<linearGradient id="SVGID_2_" gradientUnits="userSpaceOnUse" x1="106.5419" y1="263.8887" x2="106.5419" y2="86.6392">
			<stop  offset="0" style="stop-color:#621559"/>
			<stop  offset="1" style="stop-color:#9F2171"/>
		</linearGradient>
		<path fill="url(#SVGID_2_)" d="M109.4,108.1c6.5,0,12,1.1,16.5,3.4s8.2,5.2,11,9c2.8,3.8,4.9,8.1,6.1,13c1.2,4.9,1.9,10,1.9,15.4
			c4.2,1,7.8,1.5,11,1.5c10,0,15-5,15-15c0-6.5-1.4-12.7-4.2-18.5c-2.8-5.8-7-11-12.4-15.5c-5.4-4.5-11.9-8.1-19.5-10.8
			c-7.6-2.7-16.1-4-25.6-4c-9.2,0-17.8,1.9-26,5.6C75,96,67.9,101.6,61.8,109c-6.1,7.4-10.9,16.7-14.4,27.9
			c-3.5,11.2-5.2,24.2-5.2,39.2c0,11.3,1.2,22.3,3.6,32.9c2.4,10.6,6.1,19.9,11,28c4.9,8.1,11.7,14.6,20.4,19.5
			c8.7,4.9,19.4,7.4,32.2,7.4c5.3,0,10.8-0.6,16.4-1.9c5.6-1.2,11-3,16.2-5.2c5.2-2.3,10.2-4.9,15-7.9s9-6.3,12.6-10
			c-2-7-6.4-12.8-13.2-17.2c-15.2,12.5-29.8,18.7-43.8,18.7s-24.6-5.6-31.8-16.8c-7.2-11.2-10.8-27.5-10.8-48.8
			c0-21.5,3.3-37.9,10-49.4C86.8,113.9,96.6,108.1,109.4,108.1z"/>
		<linearGradient id="SVGID_3_" gradientUnits="userSpaceOnUse" x1="250.289" y1="263.8887" x2="250.289" y2="86.6392">
			<stop  offset="0" style="stop-color:#621559"/>
			<stop  offset="1" style="stop-color:#9F2171"/>
		</linearGradient>
		<path fill="url(#SVGID_3_)" d="M273.4,167.1l-29-12.5c-7-2.8-12.2-6-15.6-9.4c-3.4-3.4-5.1-8.2-5.1-14.4c0-6,2.8-11.2,8.2-15.6
			c5.5-4.4,12.8-6.6,21.8-6.6c12.5,0,26.7,3.9,42.7,11.8c6.3-5.8,9.6-12.8,9.8-20.8c-17.2-8.7-34.5-13-52-13
			c-8.5,0-16.3,1.2-23.4,3.5c-7.1,2.3-13.1,5.8-18.1,10.2s-8.9,9.7-11.8,15.6c-2.8,5.9-4.2,12.3-4.2,19.1c0,19,11.4,33.4,34.2,43.2
			l29.5,12.8c15.2,6.5,22.8,15.5,22.8,27c0,7-2.9,12.7-8.6,17c-5.8,4.3-13.5,6.5-23.4,6.5c-16.2,0-32.9-5.7-50.2-17
			c-6.8,5.5-10.6,12.3-11.2,20.5c17.7,12.5,37.1,18.8,58.2,18.8c21.2,0,37-4.6,47.4-13.9c10.4-9.2,15.6-21.4,15.6-36.4
			c0-10.5-3.1-19.5-9.4-27.1C295.3,178.9,285.9,172.5,273.4,167.1z"/>
		<linearGradient id="SVGID_4_" gradientUnits="userSpaceOnUse" x1="389.2889" y1="263.8887" x2="389.2889" y2="86.6392">
			<stop  offset="0" style="stop-color:#621559"/>
			<stop  offset="1" style="stop-color:#9F2171"/>
		</linearGradient>
		<path fill="url(#SVGID_4_)" d="M412.4,167.1l-29-12.5c-7-2.8-12.2-6-15.6-9.4c-3.4-3.4-5.1-8.2-5.1-14.4c0-6,2.8-11.2,8.2-15.6
			c5.5-4.4,12.8-6.6,21.8-6.6c12.5,0,26.8,3.9,42.8,11.8c6.3-5.8,9.6-12.8,9.8-20.8c-17.2-8.7-34.5-13-52-13
			c-8.5,0-16.3,1.2-23.4,3.5c-7.1,2.3-13.1,5.8-18.1,10.2s-8.9,9.7-11.8,15.6c-2.8,5.9-4.2,12.3-4.2,19.1c0,19,11.4,33.4,34.2,43.2
			l29.5,12.8c15.2,6.5,22.8,15.5,22.8,27c0,7-2.9,12.7-8.6,17c-5.8,4.3-13.5,6.5-23.4,6.5c-16.2,0-32.9-5.7-50.2-17
			c-6.8,5.5-10.6,12.3-11.2,20.5c17.7,12.5,37.1,18.8,58.2,18.8c21.2,0,37-4.6,47.4-13.9c10.4-9.2,15.6-21.4,15.6-36.4
			c0-10.5-3.1-19.5-9.4-27.1C434.3,178.9,424.9,172.5,412.4,167.1z"/>
	</g>
	<linearGradient id="SVGID_5_" gradientUnits="userSpaceOnUse" x1="287.1743" y1="358.0213" x2="287.1743" y2="288.7131">
		<stop  offset="0" style="stop-color:#621559"/>
		<stop  offset="1" style="stop-color:#9F2171"/>
	</linearGradient>
	<path fill="url(#SVGID_5_)" d="M503,303.7C237,296.4,93.1,359,80.4,358c-12.7-1-25.1-19.2-8-25.1C250.3,271.5,510.3,292,510.3,292
		L503,303.7z"/>
	
		<linearGradient id="SVGID_6_" gradientUnits="userSpaceOnUse" x1="703.0169" y1="323.7527" x2="703.0169" y2="366.449" gradientTransform="matrix(-1 0 0 -1 1494.1555 662.8813)">
		<stop  offset="0" style="stop-color:#621559"/>
		<stop  offset="1" style="stop-color:#9F2171"/>
	</linearGradient>
	<path fill="url(#SVGID_6_)" d="M589.9,296.4C668,317,743,325.6,794.1,328.6C981.5,339.9,984.9,306,992,317
		c7.8,12.2-94.9,25.7-197.7,21.3c-98.9-4.2-203.7-26.1-203.7-26.1L589.9,296.4z"/>
</g>
</svg>
