<?xml version="1.0" standalone="no"?>
<!DOCTYPE svg PUBLIC "-//W3C//DTD SVG 20010904//EN"
 "http://www.w3.org/TR/2001/REC-SVG-20010904/DTD/svg10.dtd">
<svg version="1.0" xmlns="http://www.w3.org/2000/svg"
 width="2094.000000pt" height="2094.000000pt" viewBox="0 0 2094.000000 2094.000000"
 preserveAspectRatio="xMidYMid meet">
<metadata>
Created by potrace 1.11, written by Peter Selinger 2001-2013
</metadata>
<g transform="translate(0.000000,2094.000000) scale(0.100000,-0.100000)"
fill="#000000" stroke="none">
<path d="M2098 13035 c-2 -1 -32 -5 -68 -9 -36 -3 -78 -9 -95 -12 -16 -4 -37
-8 -45 -9 -8 -1 -22 -5 -30 -8 -8 -3 -44 -16 -80 -27 -73 -24 -213 -89 -218
-102 -2 -4 -8 -8 -13 -8 -19 0 -163 -114 -227 -178 -79 -81 -165 -194 -218
-287 -43 -75 -117 -242 -117 -262 0 -7 -5 -13 -10 -13 -6 0 -7 -3 -4 -7 4 -3
2 -12 -4 -20 -6 -7 -8 -13 -5 -13 4 0 2 -8 -3 -18 -10 -19 -55 -186 -65 -242
-3 -19 -8 -46 -11 -60 -5 -23 -10 -55 -20 -145 -21 -171 -24 -510 -6 -665 19
-164 20 -175 55 -350 3 -14 15 -59 26 -100 25 -91 25 -91 33 -110 4 -8 14 -37
23 -65 9 -27 29 -76 45 -107 15 -32 25 -58 22 -58 -3 0 0 -6 6 -13 6 -8 24
-39 41 -71 28 -52 91 -146 115 -172 5 -6 26 -28 45 -50 20 -21 60 -59 90 -84
30 -25 57 -47 60 -50 9 -10 134 -87 175 -107 41 -21 183 -72 219 -79 12 -2 44
-8 71 -14 28 -6 66 -13 85 -16 68 -10 445 -6 445 6 0 1 11 3 25 5 57 6 237 54
285 75 11 5 47 19 80 31 69 26 275 129 295 149 3 3 21 14 40 24 42 23 161 111
214 159 37 35 38 36 26 73 -28 84 -66 142 -147 222 -46 45 -90 82 -98 82 -8 0
-54 -30 -102 -66 -98 -74 -246 -164 -268 -164 -8 0 -15 -3 -15 -8 0 -13 -207
-91 -285 -107 -96 -19 -260 -25 -350 -12 -58 9 -155 35 -170 47 -5 4 -21 11
-35 15 -33 10 -125 74 -175 122 -49 47 -115 128 -115 141 0 6 -4 12 -9 14 -14
5 -96 187 -119 263 -29 97 -45 157 -47 180 -1 11 -5 38 -9 60 -14 80 -16 91
-22 170 -4 44 -8 135 -8 202 -1 68 -5 123 -9 123 -5 0 -5 4 -2 10 3 5 8 62 10
125 3 64 7 128 9 143 3 15 8 56 11 92 4 36 9 74 11 85 8 40 17 90 19 107 0 10
4 21 8 24 4 4 7 15 7 25 0 34 51 173 100 275 48 98 116 195 174 243 15 14 34
31 41 38 30 29 165 93 235 110 53 14 105 18 180 17 92 -2 120 -4 190 -17 8 -1
20 -5 25 -8 6 -4 28 -12 50 -19 52 -17 160 -82 203 -123 52 -49 106 -125 141
-199 17 -37 32 -70 32 -73 0 -2 6 -26 14 -52 20 -68 34 -157 39 -242 5 -79 7
-84 34 -87 9 -1 49 -7 87 -12 91 -12 214 -7 231 11 4 4 14 7 22 7 30 0 95 65
120 120 21 45 26 71 27 150 1 52 -2 111 -6 130 -4 19 -11 50 -14 69 -18 106
-103 264 -199 376 -44 51 -186 175 -200 175 -3 0 -29 15 -58 34 -44 28 -160
86 -172 86 -2 0 -21 8 -42 17 -22 9 -43 17 -49 19 -5 1 -35 9 -65 18 -30 9
-56 16 -58 16 -1 0 -12 2 -25 5 -23 5 -70 13 -122 20 -35 6 -302 14 -307 10z"/>
<path d="M4940 13033 c-181 -22 -383 -76 -464 -124 -20 -11 -36 -17 -36 -12 0
4 -4 3 -8 -2 -4 -6 -38 -30 -75 -54 -172 -111 -328 -320 -385 -516 -40 -136
-47 -303 -19 -435 18 -82 64 -197 92 -230 8 -8 15 -19 16 -25 4 -20 55 -82
124 -150 70 -69 178 -149 265 -196 25 -13 48 -28 51 -32 3 -5 9 -8 12 -8 4 0
27 -8 53 -19 25 -11 50 -20 55 -20 5 0 9 -4 9 -10 0 -5 7 -10 15 -10 8 0 38
-11 67 -24 29 -14 107 -48 173 -76 447 -193 534 -240 635 -344 65 -67 87 -103
117 -191 33 -96 33 -252 1 -292 -6 -7 -7 -13 -2 -13 5 0 5 -4 -1 -8 -5 -4 -18
-23 -28 -42 -20 -40 -91 -120 -107 -120 -5 0 -10 -4 -10 -8 0 -17 -142 -82
-223 -103 -45 -12 -120 -23 -167 -24 -47 -2 -89 -4 -95 -5 -5 -1 -12 -1 -15 0
-3 1 -30 3 -60 4 -213 10 -514 106 -740 236 -41 23 -84 48 -95 54 -11 6 -33
20 -48 30 l-28 19 -59 -60 c-51 -53 -119 -152 -119 -176 0 -4 -8 -21 -16 -37
-9 -17 -14 -30 -11 -30 2 0 -2 -22 -9 -49 -12 -47 -12 -51 9 -69 67 -59 270
-169 451 -243 23 -9 113 -39 135 -45 8 -2 41 -10 74 -19 32 -9 70 -18 85 -20
14 -3 62 -11 107 -18 44 -8 88 -13 97 -11 9 1 17 -1 17 -4 0 -13 400 -3 495
12 22 4 54 9 70 11 67 11 94 18 175 42 93 27 260 101 260 114 0 5 6 9 13 9 15
0 138 99 185 150 18 19 49 60 70 90 20 30 40 57 43 60 7 6 60 120 63 135 1 6
4 15 8 20 7 11 33 110 43 160 20 105 15 298 -10 418 -10 49 -77 210 -95 227
-3 3 -17 23 -32 45 -42 62 -151 169 -225 222 -38 26 -69 51 -71 55 -2 5 -7 8
-12 8 -5 0 -41 19 -82 43 -40 23 -98 54 -128 67 -30 14 -56 28 -58 33 -2 4
-10 7 -18 7 -14 0 -45 13 -172 71 -35 16 -69 29 -75 29 -7 0 -17 4 -23 8 -5 5
-34 19 -64 32 -30 12 -75 31 -100 42 -25 11 -54 24 -65 28 -147 62 -285 131
-285 142 0 4 -6 8 -14 8 -21 0 -138 119 -158 160 -37 78 -53 206 -36 280 24
99 126 229 214 275 22 11 41 22 44 25 3 4 35 16 73 28 182 59 450 47 700 -31
26 -8 47 -13 47 -10 0 3 6 1 13 -4 6 -6 37 -18 67 -28 30 -10 108 -42 172 -70
l118 -53 50 55 c28 30 66 88 86 128 39 82 41 91 58 211 3 18 -10 28 -73 57
-141 66 -337 136 -456 163 -63 15 -114 25 -145 29 -19 3 -46 7 -60 10 -64 13
-126 17 -270 19 -85 1 -166 0 -180 -1z"/>
<path d="M7738 13035 c-2 -2 -32 -6 -68 -10 -36 -4 -74 -9 -85 -11 -11 -3 -36
-7 -55 -10 -19 -3 -44 -11 -55 -17 -11 -6 -22 -10 -25 -9 -24 7 -201 -66 -265
-108 -22 -15 -45 -29 -51 -31 -27 -10 -137 -109 -199 -181 -77 -88 -156 -233
-180 -328 -2 -8 -4 -15 -5 -15 -4 0 -19 -86 -26 -145 -16 -153 0 -279 53 -410
27 -67 89 -172 104 -178 5 -2 9 -8 9 -14 0 -11 159 -168 170 -168 4 0 18 -9
31 -21 13 -11 44 -33 69 -47 25 -14 47 -29 50 -32 13 -14 286 -140 305 -140 7
0 18 -7 25 -15 7 -8 18 -15 25 -15 7 0 43 -14 81 -31 38 -16 83 -36 99 -44 17
-7 75 -32 130 -55 126 -53 249 -113 253 -122 2 -5 8 -8 12 -8 19 0 103 -64
160 -121 60 -61 123 -171 135 -239 9 -46 9 -156 1 -199 -12 -62 -56 -138 -111
-194 -31 -31 -64 -59 -75 -62 -11 -4 -20 -11 -20 -16 0 -5 -4 -9 -9 -9 -5 0
-29 -9 -55 -20 -25 -12 -47 -20 -48 -20 -2 1 -16 -4 -33 -10 -16 -7 -39 -14
-50 -16 -11 -2 -33 -7 -50 -10 -16 -4 -66 -8 -110 -10 -44 -2 -82 -4 -85 -5
-3 -1 -9 0 -15 1 -5 1 -38 3 -71 5 -34 1 -70 5 -80 8 -11 3 -41 8 -69 12 -157
20 -409 115 -610 230 -33 19 -68 38 -77 41 -10 4 -18 10 -18 14 0 4 -11 12
-25 18 -23 11 -29 8 -69 -31 -101 -99 -161 -214 -171 -327 l-3 -45 94 -59
c109 -68 265 -148 321 -166 21 -7 42 -16 47 -21 6 -5 20 -9 32 -9 13 0 25 -4
28 -9 3 -4 20 -12 38 -16 18 -4 38 -9 45 -10 6 -2 27 -8 45 -14 18 -6 44 -13
58 -15 14 -3 48 -10 75 -16 28 -6 70 -13 95 -15 25 -3 65 -8 90 -11 64 -9 320
-8 415 1 115 11 130 13 130 15 0 1 14 3 30 5 107 12 385 104 385 128 0 5 4 6
9 2 5 -3 16 1 23 9 8 7 27 20 43 29 17 9 42 27 57 41 15 14 30 26 32 26 14 0
149 148 168 184 6 12 14 23 17 26 26 21 111 227 111 270 0 11 3 20 8 20 4 0 7
10 8 23 1 28 15 155 19 179 2 10 -1 18 -6 18 -6 0 -6 7 -1 18 4 9 7 26 6 37
-13 140 -22 185 -54 270 -54 146 -137 258 -280 376 -59 49 -258 176 -267 171
-3 -2 -9 0 -12 5 -5 6 -72 42 -91 48 -3 1 -23 10 -45 19 -22 10 -60 27 -85 38
-25 11 -58 25 -75 33 -16 7 -59 25 -95 40 -36 15 -83 35 -105 46 -22 10 -89
39 -150 65 -141 59 -275 125 -275 136 0 4 -7 8 -15 8 -9 0 -46 30 -83 68 -59
58 -71 77 -90 137 -23 73 -31 163 -19 227 8 46 39 118 50 118 4 0 6 4 3 9 -12
19 160 171 192 171 6 0 12 3 14 8 5 11 136 51 193 59 63 9 257 8 310 -1 22 -4
54 -9 70 -11 17 -2 59 -11 95 -20 36 -9 81 -20 100 -25 67 -17 280 -100 360
-140 l56 -28 32 28 c18 15 32 30 32 33 0 3 10 17 23 30 37 41 88 152 101 224
12 61 14 89 8 99 -8 12 -215 104 -277 124 -22 7 -44 15 -50 19 -5 3 -12 6 -15
7 -3 0 -25 6 -50 14 -25 7 -49 14 -55 15 -5 2 -39 10 -75 20 -83 21 -80 21
-175 35 -44 7 -89 14 -100 16 -23 5 -362 13 -367 9z"/>
<path d="M12166 12548 c-124 -64 -253 -283 -291 -496 -16 -89 -14 -253 5 -327
48 -192 119 -314 275 -470 70 -70 88 -86 158 -139 l37 -29 -27 -36 c-15 -20
-31 -37 -35 -39 -4 -2 -8 -10 -8 -17 0 -8 -6 -18 -13 -22 -6 -4 -25 -26 -42
-48 -16 -22 -32 -42 -36 -45 -4 -3 -21 -23 -39 -45 -62 -79 -159 -183 -368
-394 -117 -118 -244 -248 -283 -289 -39 -40 -74 -71 -77 -67 -4 3 -8 212 -9
463 -3 511 -5 562 -15 562 -5 0 -7 3 -6 8 1 4 -2 21 -6 38 -5 24 -19 38 -55
58 -58 31 -168 74 -205 78 -14 2 -28 7 -32 10 -3 4 -16 3 -29 -2 -13 -5 -25
-6 -28 -3 -13 13 -76 -19 -84 -43 l-8 -25 -35 26 c-18 14 -39 25 -46 25 -7 0
-14 3 -16 8 -11 24 -185 95 -288 117 -101 22 -131 25 -230 25 -80 0 -96 -2
-152 -16 -13 -3 -27 -6 -33 -8 -152 -37 -298 -152 -393 -309 -35 -57 -51 -89
-88 -172 -35 -81 -97 -326 -109 -430 -2 -16 -6 -55 -9 -85 -12 -101 -7 -320 8
-390 1 -8 6 -33 10 -55 10 -49 46 -158 56 -165 4 -3 9 -10 11 -17 9 -27 116
-137 173 -177 57 -41 138 -87 161 -93 5 -1 40 -11 76 -21 76 -22 200 -22 269
-2 25 8 52 14 60 15 26 3 112 48 189 100 102 68 293 258 441 438 4 4 7 -5 7
-20 1 -63 14 -387 16 -393 1 -4 -27 -47 -63 -95 -36 -48 -69 -95 -75 -104 -5
-9 -13 -18 -16 -21 -15 -13 -89 -120 -89 -129 0 -5 -3 -11 -7 -13 -9 -3 -73
-96 -73 -104 0 -5 -40 -65 -50 -74 -3 -3 -11 -16 -18 -30 -7 -14 -26 -47 -42
-75 -85 -140 -217 -426 -265 -569 -25 -77 -73 -276 -81 -336 -10 -71 -9 -274
0 -323 32 -166 128 -309 249 -371 55 -27 75 -33 142 -42 64 -9 227 -10 268 -1
77 15 175 81 236 160 23 29 45 57 51 64 23 28 141 308 130 308 -3 0 11 60 20
85 5 14 11 39 14 55 2 17 11 68 20 115 15 82 20 119 32 240 2 30 7 73 9 95 18
166 23 627 12 1091 -3 132 -2 245 2 252 14 24 216 235 426 447 225 226 302
307 390 411 28 32 60 69 72 81 12 13 19 23 15 23 -4 0 -2 4 4 8 7 4 37 41 68
82 31 41 62 78 69 81 7 4 37 -15 69 -45 l58 -51 -45 -118 c-24 -65 -61 -170
-80 -235 -20 -64 -40 -128 -45 -142 -5 -14 -12 -36 -14 -50 -3 -14 -7 -34 -10
-45 -2 -11 -14 -58 -25 -105 -20 -84 -31 -141 -36 -190 -2 -14 -4 -25 -5 -25
-5 0 -13 -136 -13 -230 -1 -164 17 -257 65 -337 15 -27 25 -48 21 -48 -4 0 6
-14 23 -31 111 -117 278 -97 515 63 99 67 249 187 249 200 0 5 5 8 10 8 20 0
369 359 516 529 16 19 46 53 67 75 20 23 37 44 37 48 0 5 5 8 11 8 6 0 8 -8 4
-19 -24 -76 -21 -166 9 -296 10 -41 93 -179 134 -220 122 -126 218 -166 381
-161 94 2 115 7 186 36 44 18 94 44 111 57 17 13 35 23 40 23 5 0 23 13 39 28
17 15 58 53 92 85 35 31 59 57 55 57 -4 0 0 6 8 13 8 7 31 32 50 57 19 25 37
47 40 50 3 3 16 21 28 40 l22 35 -2 -80 c-2 -135 19 -268 49 -315 52 -80 136
-125 219 -117 86 9 151 40 304 144 111 75 379 335 540 524 25 29 50 57 55 63
23 25 203 244 240 292 22 28 79 102 128 163 48 61 87 114 87 117 0 3 13 19 30
37 16 18 30 38 30 45 0 6 4 12 10 12 5 0 16 12 24 28 13 23 15 24 16 7 0 -11
-5 -37 -11 -59 -6 -21 -12 -48 -15 -60 -4 -23 -53 -259 -61 -291 -2 -11 -6
-31 -8 -45 -7 -49 -16 -95 -20 -110 -4 -16 -15 -71 -20 -105 -3 -17 -21 -137
-40 -255 -18 -118 -25 -346 -12 -397 9 -35 38 -73 66 -87 80 -40 176 23 346
229 28 33 52 62 55 65 3 3 46 57 95 120 48 63 94 120 102 126 7 6 13 15 13 20
0 5 15 26 33 47 17 20 55 67 82 103 43 56 126 165 153 199 4 6 30 39 57 75 27
36 55 72 62 80 7 8 49 62 94 120 46 58 85 107 88 110 4 3 26 30 50 60 25 30
51 61 60 68 8 6 12 12 10 12 -3 0 26 34 64 75 69 73 92 85 82 42 -2 -12 -7
-44 -10 -72 -3 -27 -13 -88 -21 -135 -22 -116 -22 -116 -39 -195 -8 -38 -17
-81 -19 -95 -2 -14 -9 -45 -14 -70 -6 -25 -13 -62 -16 -84 -4 -21 -8 -42 -11
-46 -2 -4 -7 -22 -9 -41 -2 -19 -11 -66 -20 -104 -19 -90 -24 -119 -32 -175
-3 -25 -8 -47 -9 -50 -9 -15 -20 -137 -20 -230 0 -121 18 -171 74 -204 103
-60 237 34 471 331 36 46 68 83 73 83 4 0 7 5 7 10 0 6 19 34 43 64 23 29 57
73 75 97 78 105 117 154 127 161 6 5 6 8 0 8 -7 0 -7 3 0 8 6 4 63 78 127 164
65 86 125 163 133 171 8 9 15 18 15 22 0 11 243 298 289 342 31 29 47 39 52
31 4 -7 6 -15 5 -18 -2 -3 -6 -34 -10 -70 -4 -36 -11 -87 -16 -115 -9 -51 -17
-96 -25 -150 -3 -16 -8 -43 -11 -60 -4 -16 -8 -37 -9 -45 -2 -8 -10 -51 -20
-95 -9 -44 -19 -95 -21 -114 -3 -19 -7 -38 -10 -42 -6 -10 -12 -36 -20 -89 -3
-19 -7 -42 -9 -50 -4 -14 -91 -428 -101 -477 -56 -300 -71 -487 -45 -579 14
-51 63 -102 108 -110 99 -19 244 62 452 251 104 94 309 305 446 459 31 35 135
154 151 174 10 13 27 33 38 45 83 97 94 141 47 188 -16 16 -36 29 -45 29 -30
0 -69 -21 -96 -53 -15 -17 -74 -86 -131 -152 -150 -175 -164 -190 -393 -419
-149 -148 -211 -204 -217 -195 -4 7 -6 16 -4 19 3 5 11 51 20 110 2 14 11 57
20 95 9 39 19 81 21 95 3 14 11 48 19 76 8 28 17 62 19 75 3 13 5 24 6 24 1 0
3 7 5 15 2 8 8 30 14 48 5 17 8 32 5 32 -3 0 0 8 5 18 6 11 12 30 15 43 2 13
30 123 61 244 32 121 59 227 60 235 2 8 4 15 5 15 1 0 3 9 4 20 2 11 15 72 29
135 14 63 28 129 31 145 36 209 39 324 11 355 -14 15 -102 53 -153 65 -9 3
-64 17 -123 31 l-105 27 -56 -25 c-30 -14 -68 -36 -83 -49 -46 -38 -157 -151
-195 -198 -19 -24 -42 -51 -50 -60 -9 -9 -33 -38 -55 -66 -22 -27 -45 -56 -52
-63 -7 -7 -13 -17 -13 -21 0 -4 -13 -22 -30 -40 -16 -19 -42 -52 -57 -75 -15
-22 -38 -52 -50 -66 -13 -14 -23 -28 -23 -32 0 -4 -10 -16 -22 -28 -12 -11
-18 -20 -13 -20 5 0 2 -6 -7 -12 -13 -11 -119 -151 -186 -247 -10 -13 -22 -28
-27 -35 -6 -6 -24 -29 -40 -51 -71 -95 -143 -183 -147 -179 -6 6 18 160 27
175 3 4 7 24 10 45 3 22 14 69 24 107 11 37 20 70 20 72 1 3 1 6 2 8 1 4 8 32
13 54 2 12 23 93 46 180 23 87 43 165 45 174 2 8 10 44 19 80 9 35 23 100 30
144 18 100 10 118 -64 160 -64 35 -179 85 -197 85 -7 0 -13 3 -13 8 0 4 -17 9
-38 10 -20 2 -48 5 -62 6 -23 2 -68 -11 -80 -24 -3 -3 -17 -12 -31 -20 -47
-27 -161 -140 -259 -259 -25 -30 -52 -62 -60 -71 -8 -9 -31 -36 -50 -61 -19
-24 -38 -45 -42 -47 -4 -2 -8 -8 -8 -14 0 -6 -8 -18 -18 -27 -10 -9 -29 -32
-42 -51 -13 -19 -27 -37 -30 -40 -3 -3 -19 -23 -35 -45 -17 -22 -32 -42 -35
-45 -3 -3 -27 -34 -55 -70 -27 -36 -53 -66 -57 -68 -5 -2 -8 -8 -8 -13 0 -5
-9 -19 -19 -31 -11 -13 -56 -70 -100 -128 -44 -58 -86 -112 -94 -120 -7 -8
-39 -50 -71 -92 -71 -94 -87 -109 -81 -76 3 12 8 43 11 68 3 25 7 52 9 60 3 8
7 32 11 54 3 21 8 48 10 60 3 11 7 33 9 49 2 15 6 31 9 36 3 4 8 23 11 42 14
76 141 594 150 609 2 3 7 22 10 41 3 19 11 52 16 74 6 22 13 48 14 57 2 10 6
22 9 26 3 5 8 28 11 53 5 38 2 47 -19 69 -65 65 -148 101 -236 103 -97 3 -110
-4 -160 -80 -24 -37 -48 -72 -52 -78 -40 -52 -57 -75 -78 -107 -14 -21 -28
-38 -32 -38 -5 0 -8 -5 -8 -10 0 -6 -24 -41 -52 -79 -29 -38 -62 -82 -73 -97
-11 -15 -26 -33 -32 -40 -7 -7 -13 -17 -13 -22 0 -6 -3 -12 -8 -14 -4 -2 -39
-43 -77 -93 -38 -49 -74 -95 -80 -102 -12 -15 -19 -24 -65 -83 -19 -25 -39
-50 -45 -56 -5 -6 -23 -27 -40 -48 -16 -21 -39 -48 -50 -61 -11 -12 -31 -35
-44 -51 -122 -147 -381 -420 -452 -478 -13 -11 -40 -33 -60 -50 -44 -38 -72
-60 -85 -68 -10 -6 -17 36 -16 92 1 45 11 185 16 205 2 11 7 45 11 75 4 30 9
63 11 73 2 9 6 25 8 35 2 9 7 37 10 62 6 42 9 58 21 113 3 12 8 38 11 57 3 19
12 64 20 100 7 36 16 76 18 90 3 14 7 34 10 45 7 28 66 285 72 315 3 13 14 61
24 107 11 46 22 98 24 115 3 18 8 45 10 59 4 17 0 33 -12 46 -36 42 -215 112
-287 112 -55 0 -61 -7 -84 -84 -13 -41 -25 -75 -27 -75 -3 0 -22 17 -43 38
-59 58 -83 74 -146 98 -79 29 -224 24 -346 -12 -65 -19 -190 -79 -243 -116
-141 -99 -283 -236 -402 -387 -11 -13 -31 -38 -45 -55 -15 -17 -62 -83 -104
-146 -87 -130 -186 -260 -197 -260 -5 0 -8 -4 -8 -10 0 -5 -9 -20 -19 -32 -98
-117 -191 -225 -221 -258 -14 -15 -54 -60 -90 -100 -125 -140 -371 -381 -485
-475 -70 -58 -215 -158 -215 -148 0 4 -4 3 -8 -2 -7 -11 -67 -38 -112 -51 -22
-7 -70 -6 -78 1 -13 12 -21 135 -9 135 5 0 6 4 3 9 -11 17 74 307 119 406 8
17 27 64 43 105 46 116 210 459 275 572 14 24 41 75 62 113 21 39 42 73 47 76
9 6 -11 18 -37 24 -60 14 -145 41 -162 52 -13 7 -23 11 -23 8 0 -4 -36 13 -80
36 -44 24 -80 46 -80 51 0 4 -6 8 -12 8 -19 0 -128 100 -128 116 0 8 3 14 8
14 4 0 12 10 18 23 15 30 41 75 64 112 45 73 129 255 155 335 10 30 22 64 26
75 48 123 68 386 39 496 -7 24 -13 49 -14 54 -3 20 -59 130 -75 148 -39 43
-97 97 -104 97 -5 0 -21 9 -37 20 -15 11 -36 21 -46 23 -11 1 -25 6 -31 10 -7
5 -13 6 -13 3 0 -3 -17 1 -38 8 -95 34 -321 42 -376 14z m418 -217 c35 -2 103
-82 126 -151 32 -91 32 -302 1 -382 -6 -16 -8 -28 -5 -28 4 0 1 -7 -6 -15 -7
-8 -10 -15 -6 -15 3 0 -4 -24 -15 -52 -11 -29 -21 -55 -21 -58 -3 -39 -170
-360 -187 -360 -4 0 -19 26 -33 58 -64 141 -83 237 -83 427 0 157 5 205 30
295 9 30 17 64 19 75 6 37 68 156 97 185 16 15 37 27 46 25 10 -2 26 -4 37 -4z
m2706 -1182 c0 -6 -4 -18 -9 -28 -6 -10 -12 -28 -14 -42 -2 -13 -7 -31 -10
-39 -10 -26 -27 -86 -32 -109 -2 -13 -7 -31 -10 -41 -3 -10 -8 -27 -10 -37
-13 -58 -57 -208 -63 -217 -5 -6 -17 -38 -28 -71 -10 -33 -21 -62 -24 -65 -3
-3 -6 -12 -8 -20 -8 -36 -174 -357 -192 -370 -3 -3 -17 -23 -30 -45 -13 -22
-31 -48 -40 -57 -8 -9 -35 -41 -59 -70 -25 -29 -70 -74 -100 -99 -54 -44 -141
-103 -151 -102 -3 0 -15 -3 -28 -8 -38 -15 -99 -22 -126 -15 -37 9 -74 51 -87
99 -6 23 -14 49 -16 57 -11 30 -9 177 3 250 18 112 20 122 38 164 9 22 14 41
12 43 -5 5 33 94 76 178 63 122 178 272 276 359 125 111 371 241 514 270 7 2
20 6 28 9 14 6 48 12 78 16 6 0 12 -4 12 -10z m-4498 -30 c57 -30 138 -101
157 -137 6 -11 10 -27 10 -38 0 -10 2 -55 5 -99 3 -44 8 -116 10 -160 12 -224
18 -329 20 -344 2 -8 -2 -21 -8 -27 -27 -28 -46 -55 -46 -63 0 -5 -3 -11 -7
-13 -5 -1 -43 -47 -87 -100 -100 -124 -252 -282 -336 -349 -118 -93 -207 -128
-314 -120 -17 1 -106 90 -106 106 0 6 -6 17 -12 24 -7 6 -13 15 -13 19 -1 4
-9 22 -18 40 -10 17 -15 32 -13 32 3 0 1 12 -5 28 -23 58 -32 135 -32 257 0
84 11 213 18 225 2 3 6 25 10 50 16 107 87 288 149 380 42 62 44 64 111 132
86 86 206 152 315 171 43 8 168 -1 192 -14z m244 -1989 c-1 -99 3 -180 7 -180
5 0 5 -5 1 -12 -4 -7 -8 -71 -10 -142 -2 -140 -12 -359 -19 -416 -2 -19 -7
-62 -10 -95 -6 -56 -17 -142 -31 -225 -3 -19 -15 -71 -26 -115 -11 -44 -21
-86 -21 -92 0 -7 -3 -13 -7 -13 -3 0 -6 -8 -7 -18 -4 -55 -120 -240 -150 -242
-7 0 -13 -5 -13 -12 0 -6 -3 -8 -6 -5 -4 3 -15 2 -26 -4 -11 -6 -32 -13 -46
-15 -15 -3 -34 -7 -42 -9 -28 -9 -108 52 -144 107 -76 121 -87 259 -41 508 12
60 76 275 86 285 5 5 9 15 9 22 0 24 158 355 172 361 4 2 8 9 8 16 0 6 11 28
25 47 13 20 21 39 18 43 -4 3 -2 6 4 6 6 0 16 14 23 30 7 17 16 30 20 30 4 0
10 8 14 18 6 17 75 130 95 154 25 31 81 109 81 114 0 7 24 33 31 34 3 0 6 -81
5 -180z"/>
<path d="M7646 8993 c-1 -1 -123 -5 -272 -8 -148 -3 -318 -7 -379 -10 -311
-11 -409 -16 -505 -21 -58 -3 -141 -8 -185 -10 -217 -10 -552 -33 -705 -48
-30 -3 -84 -8 -120 -11 -87 -6 -187 -15 -230 -20 -19 -2 -64 -6 -100 -9 -36
-4 -87 -9 -115 -12 -27 -4 -68 -8 -90 -10 -22 -1 -40 -3 -40 -4 0 -2 -15 -4
-115 -14 -36 -4 -77 -8 -93 -10 -15 -2 -55 -7 -90 -11 -34 -3 -75 -9 -92 -12
-16 -2 -46 -6 -65 -8 -53 -6 -122 -15 -150 -20 -14 -3 -45 -7 -70 -10 -67 -8
-132 -17 -155 -21 -11 -2 -40 -6 -65 -9 -25 -3 -56 -8 -68 -11 -13 -3 -42 -7
-64 -10 -46 -7 -73 -12 -73 -14 0 -2 -29 -6 -96 -14 -25 -3 -66 -10 -90 -15
-24 -5 -60 -12 -79 -15 -41 -7 -59 -10 -205 -37 -60 -12 -121 -23 -135 -26
-13 -2 -56 -11 -95 -19 -38 -9 -79 -17 -90 -20 -11 -2 -43 -8 -71 -14 -28 -6
-64 -13 -80 -16 -16 -3 -47 -10 -69 -16 -22 -5 -49 -12 -60 -14 -11 -2 -67
-16 -125 -29 -58 -14 -114 -27 -125 -29 -11 -2 -20 -4 -20 -5 0 -3 -17 -7 -58
-16 -32 -6 -46 -10 -337 -90 -8 -2 -55 -16 -105 -30 -49 -14 -94 -27 -100 -28
-26 -7 -255 -80 -290 -94 -22 -8 -47 -16 -55 -18 -28 -6 -97 -33 -137 -53 -92
-47 -124 -158 -76 -261 14 -28 29 -51 34 -51 5 0 9 -5 9 -11 0 -21 75 -80 144
-114 86 -42 139 -42 286 0 30 9 62 18 71 20 9 2 49 13 90 25 41 11 106 30 144
41 39 11 77 23 85 26 8 3 20 7 25 9 6 1 44 12 85 24 41 11 84 23 95 25 11 3
49 14 85 24 98 30 142 42 175 48 17 3 38 9 47 14 9 5 34 12 55 15 21 3 45 9
53 14 8 4 33 11 55 15 22 5 45 10 50 11 86 25 249 63 255 59 5 -3 11 -1 15 5
4 6 11 8 16 5 5 -4 9 -1 9 6 0 7 3 10 6 7 3 -3 21 -2 41 4 19 5 43 11 52 13 9
2 84 20 167 39 150 35 171 40 229 51 17 3 58 12 93 20 34 8 76 17 93 20 18 3
40 10 49 15 10 5 20 7 22 4 3 -2 34 2 69 10 35 8 84 18 109 21 24 4 47 8 50
10 3 2 21 6 40 9 19 3 46 8 60 11 14 3 36 7 50 10 59 12 96 19 115 21 11 1 20
3 20 4 0 1 11 3 25 5 14 2 39 6 55 9 90 18 121 24 135 24 8 0 40 5 70 11 30 7
84 16 120 22 36 5 92 14 125 19 33 6 107 17 165 25 58 8 116 17 130 20 14 3
45 7 70 10 25 2 45 5 45 5 0 3 45 10 95 15 30 3 66 7 80 10 14 3 49 7 78 11
29 3 62 7 73 9 11 2 47 7 80 10 33 4 69 8 79 10 10 2 47 6 82 10 69 7 124 13
178 20 19 2 62 7 95 10 79 7 162 15 205 21 37 4 108 11 205 19 33 2 87 7 120
10 77 8 152 14 240 19 39 3 102 7 140 10 39 3 102 8 140 11 39 3 113 8 165 11
52 2 127 6 165 8 66 4 211 11 459 21 324 14 580 18 1131 17 336 0 663 -2 728
-4 103 -3 121 -1 138 15 10 10 19 22 19 28 0 5 5 15 10 22 6 7 33 47 60 90
l50 77 -33 1 c-17 1 -50 3 -72 5 -64 5 -180 12 -315 19 -69 3 -163 8 -210 10
-103 6 -356 14 -625 21 -202 5 -1305 11 -1309 7z"/>
<path d="M11806 8688 c3 -84 7 -155 10 -159 3 -5 65 -19 109 -24 6 -1 24 -4
40 -8 17 -4 41 -9 55 -11 22 -4 86 -17 160 -31 22 -4 109 -20 165 -30 11 -2
31 -6 45 -9 14 -3 41 -8 60 -11 31 -3 83 -13 170 -29 14 -3 43 -7 64 -11 21
-3 48 -7 60 -10 12 -2 39 -7 61 -10 22 -3 66 -10 98 -16 32 -5 74 -12 95 -15
20 -3 51 -7 67 -10 17 -3 46 -7 65 -9 19 -2 35 -4 35 -5 0 -2 34 -8 90 -16 28
-4 59 -8 70 -9 11 -2 43 -6 70 -9 28 -4 61 -9 75 -13 14 -3 39 -7 55 -9 17 -1
46 -5 65 -8 19 -3 55 -8 80 -11 25 -4 56 -9 70 -11 14 -3 48 -7 75 -9 28 -3
61 -7 75 -10 14 -3 45 -8 70 -10 25 -3 61 -7 80 -10 19 -3 53 -7 75 -10 22 -2
65 -6 95 -10 30 -4 66 -8 80 -10 14 -1 54 -6 90 -10 36 -4 76 -9 90 -10 14 -2
54 -6 90 -9 36 -4 88 -9 115 -12 81 -9 116 -13 185 -18 103 -8 178 -15 223
-21 23 -3 78 -8 122 -10 44 -2 116 -7 160 -11 44 -3 94 -7 110 -8 17 0 36 -5
43 -9 6 -5 12 -4 12 1 0 5 12 8 28 6 56 -7 317 -20 587 -30 318 -11 1133 -5
1400 11 44 2 136 7 205 11 69 3 145 7 170 9 25 2 90 6 145 9 55 4 116 9 135
11 19 2 71 6 115 9 44 4 91 8 105 11 22 3 123 13 220 21 19 1 35 3 35 4 0 1
16 3 35 5 36 2 130 14 159 20 9 1 45 6 81 11 64 8 72 9 88 14 4 1 10 2 13 2 3
-1 46 6 95 14 49 8 100 17 114 19 24 4 38 7 90 19 14 3 36 8 50 10 110 21 290
76 354 108 52 26 96 67 96 89 0 9 -9 28 -21 43 -24 31 -72 35 -140 10 -24 -9
-48 -17 -54 -18 -5 -2 -23 -8 -38 -14 -15 -7 -40 -15 -55 -18 -15 -4 -33 -11
-39 -17 -7 -5 -13 -7 -13 -4 0 4 -19 0 -41 -9 -23 -8 -54 -17 -68 -20 -14 -3
-30 -6 -36 -8 -5 -1 -30 -8 -55 -15 -44 -13 -57 -16 -110 -26 -14 -3 -36 -7
-50 -10 -14 -3 -38 -8 -55 -10 -16 -3 -37 -8 -45 -10 -8 -2 -33 -6 -55 -9 -22
-4 -51 -8 -65 -11 -14 -2 -42 -7 -62 -10 -21 -3 -53 -7 -70 -10 -18 -3 -53 -7
-78 -10 -25 -2 -63 -6 -85 -9 -74 -10 -158 -18 -345 -31 -41 -3 -100 -8 -130
-10 -303 -25 -1348 -25 -1785 0 -33 2 -121 6 -195 9 -259 12 -436 23 -646 40
-34 3 -94 8 -135 11 -41 3 -85 7 -99 10 -14 2 -61 6 -105 10 -121 9 -188 15
-212 19 -22 5 -101 13 -183 20 -25 2 -63 7 -85 10 -22 3 -62 8 -90 11 -53 5
-157 18 -165 20 -6 2 -135 18 -162 21 -10 1 -19 3 -20 4 -2 1 -14 3 -28 5
-116 12 -361 48 -380 55 -3 2 -8 2 -12 2 -3 -1 -44 5 -90 13 -46 8 -97 17
-113 19 -97 14 -130 19 -220 38 -55 11 -116 21 -135 23 -19 3 -80 14 -135 25
-55 11 -120 23 -145 26 -24 3 -47 7 -51 9 -3 2 -20 7 -37 10 -18 3 -65 12
-105 21 -39 8 -81 17 -92 20 -24 5 -117 25 -245 54 -123 27 -128 28 -148 34
-9 3 -34 7 -56 11 -21 3 -43 8 -50 12 -12 8 -13 8 -70 18 -22 4 -49 11 -62 15
-12 5 -25 6 -28 3 -3 -4 -6 -1 -6 6 0 7 -4 10 -8 7 -5 -3 -49 6 -98 18 -49 13
-101 27 -117 30 l-27 6 6 -152z"/>
</g>
</svg>
